<svg width="6" height="1538" viewBox="0 0 6 1538" fill="none" xmlns="http://www.w3.org/2000/svg">
<path d="M0.0052409 5.0447C0.0066726 6.14927 0.903263 7.04354 2.00783 7.0421C3.1124 7.04067 4.00667 6.14408 4.00524 5.03951L0.0052409 5.0447ZM4.02619 21.2079C4.02476 20.1034 3.12817 19.2091 2.0236 19.2105C0.919035 19.212 0.0247661 20.1086 0.0261978 21.2131L4.02619 21.2079ZM0.0576332 45.4658C0.0590649 46.5703 0.955655 47.4646 2.06022 47.4632C3.16479 47.4617 4.05906 46.5651 4.05763 45.4606L0.0576332 45.4658ZM4.09954 77.7974C4.09811 76.6928 3.20152 75.7986 2.09695 75.8C0.992384 75.8014 0.0981153 76.698 0.099547 77.8026L4.09954 77.7974ZM0.110025 85.8868C0.111457 86.9914 1.00805 87.8856 2.11262 87.8842C3.21718 87.8828 4.11145 86.9862 4.11002 85.8816L0.110025 85.8868ZM4.13098 102.05C4.12955 100.945 3.23296 100.051 2.12839 100.053C1.02382 100.054 0.129551 100.951 0.130982 102.055L4.13098 102.05ZM0.162418 126.308C0.163849 127.412 1.06044 128.307 2.16501 128.305C3.26958 128.304 4.16385 127.407 4.16241 126.303L0.162418 126.308ZM4.20433 158.64C4.2029 157.535 3.30631 156.641 2.20174 156.642C1.09717 156.644 0.2029 157.54 0.204331 158.645L4.20433 158.64ZM0.21481 166.729C0.216242 167.833 1.11283 168.728 2.2174 168.726C3.32197 168.725 4.21624 167.828 4.21481 166.724L0.21481 166.729ZM4.23576 182.892C4.23433 181.788 3.33774 180.893 2.23317 180.895C1.1286 180.896 0.234335 181.793 0.235767 182.897L4.23576 182.892ZM0.267202 207.15C0.268634 208.255 1.16522 209.149 2.26979 209.147C3.37436 209.146 4.26863 208.249 4.2672 207.145L0.267202 207.15ZM4.30911 239.482C4.30768 238.377 3.41109 237.483 2.30652 237.484C1.20195 237.486 0.307684 238.382 0.309116 239.487L4.30911 239.482ZM0.319594 247.571C0.321026 248.676 1.21762 249.57 2.32219 249.568C3.42675 249.567 4.32102 248.67 4.31959 247.566L0.319594 247.571ZM4.34055 263.734C4.33912 262.63 3.44253 261.735 2.33796 261.737C1.23339 261.738 0.33912 262.635 0.340551 263.739L4.34055 263.734ZM0.371987 287.992C0.373418 289.097 1.27001 289.991 2.37458 289.989C3.47915 289.988 4.37342 289.091 4.37198 287.987L0.371987 287.992ZM4.4139 320.324C4.41247 319.219 3.51588 318.325 2.41131 318.326C1.30674 318.328 0.412469 319.224 0.413901 320.329L4.4139 320.324ZM0.424379 328.413C0.425811 329.518 1.3224 330.412 2.42697 330.411C3.53154 330.409 4.42581 329.513 4.42438 328.408L0.424379 328.413ZM4.44533 344.576C4.4439 343.472 3.54731 342.578 2.44274 342.579C1.33817 342.58 0.443904 343.477 0.445336 344.582L4.44533 344.576ZM0.476771 368.834C0.478203 369.939 1.37479 370.833 2.47936 370.832C3.58393 370.83 4.4782 369.934 4.47677 368.829L0.476771 368.834ZM4.51868 401.166C4.51725 400.061 3.62066 399.167 2.51609 399.168C1.41152 399.17 0.517253 400.066 0.518685 401.171L4.51868 401.166ZM0.529164 409.255C0.530595 410.36 1.42719 411.254 2.53175 411.253C3.63632 411.251 4.53059 410.355 4.52916 409.25L0.529164 409.255ZM4.55012 425.419C4.54869 424.314 3.6521 423.42 2.54753 423.421C1.44296 423.423 0.548689 424.319 0.55012 425.424L4.55012 425.419ZM0.581556 449.676C0.582988 450.781 1.47958 451.675 2.58415 451.674C3.68872 451.672 4.58298 450.776 4.58155 449.671L0.581556 449.676ZM4.62347 482.008C4.62203 480.903 3.72544 480.009 2.62088 480.011C1.51631 480.012 0.622038 480.909 0.62347 482.013L4.62347 482.008ZM0.633948 490.097C0.63538 491.202 1.53197 492.096 2.63654 492.095C3.74111 492.093 4.63538 491.197 4.63394 490.092L0.633948 490.097ZM4.6549 506.261C4.65347 505.156 3.75688 504.262 2.65231 504.263C1.54774 504.265 0.653473 505.161 0.654905 506.266L4.6549 506.261ZM0.68634 530.518C0.687772 531.623 1.58436 532.517 2.68893 532.516C3.7935 532.514 4.68777 531.618 4.68634 530.513L0.68634 530.518ZM4.72825 562.85C4.72682 561.746 3.83023 560.851 2.72566 560.853C1.62109 560.854 0.726822 561.751 0.728254 562.855L4.72825 562.85ZM0.738733 570.939C0.740164 572.044 1.63675 572.938 2.74132 572.937C3.84589 572.935 4.74016 572.039 4.73873 570.934L0.738733 570.939ZM4.75969 587.103C4.75825 585.998 3.86166 585.104 2.7571 585.105C1.65253 585.107 0.758258 586.003 0.75969 587.108L4.75969 587.103ZM0.791125 611.361C0.792557 612.465 1.68915 613.359 2.79372 613.358C3.89828 613.357 4.79255 612.46 4.79112 611.355L0.791125 611.361ZM4.83304 643.692C4.8316 642.588 3.93501 641.693 2.83044 641.695C1.72588 641.696 0.831607 642.593 0.833039 643.697L4.83304 643.692ZM0.843517 651.782C0.844949 652.886 1.74154 653.78 2.84611 653.779C3.95068 653.778 4.84495 652.881 4.84351 651.776L0.843517 651.782ZM4.86447 667.945C4.86304 666.84 3.96645 665.946 2.86188 665.948C1.75731 665.949 0.863042 666.845 0.864474 667.95L4.86447 667.945ZM0.895909 692.203C0.897341 693.307 1.79393 694.202 2.8985 694.2C4.00307 694.199 4.89734 693.302 4.89591 692.198L0.895909 692.203ZM4.93782 724.534C4.93639 723.43 4.0398 722.536 2.93523 722.537C1.83066 722.538 0.936391 723.435 0.937823 724.54L4.93782 724.534ZM0.948302 732.624C0.949733 733.728 1.84632 734.623 2.95089 734.621C4.05546 734.62 4.94973 733.723 4.9483 732.619L0.948302 732.624ZM4.96926 748.787C4.96782 747.682 4.07123 746.788 2.96666 746.79C1.8621 746.791 0.967827 747.688 0.969259 748.792L4.96926 748.787ZM1.00069 773.045C1.00213 774.149 1.89872 775.044 3.00328 775.042C4.10785 775.041 5.00212 774.144 5.00069 773.04L1.00069 773.045ZM5.0426 805.376C5.04117 804.272 4.14458 803.378 3.04001 803.379C1.93545 803.38 1.04118 804.277 1.04261 805.382L5.0426 805.376ZM1.05309 813.466C1.05452 814.57 1.95111 815.465 3.05568 815.463C4.16025 815.462 5.05451 814.565 5.05308 813.461L1.05309 813.466ZM5.07404 829.629C5.07261 828.525 4.17602 827.63 3.07145 827.632C1.96688 827.633 1.07261 828.53 1.07404 829.634L5.07404 829.629ZM1.10548 853.887C1.10691 854.991 2.0035 855.886 3.10807 855.884C4.21264 855.883 5.10691 854.986 5.10548 853.882L1.10548 853.887ZM5.14739 886.218C5.14596 885.114 4.24937 884.22 3.1448 884.221C2.04023 884.222 1.14596 885.119 1.14739 886.224L5.14739 886.218ZM1.15787 894.308C1.1593 895.412 2.05589 896.307 3.16046 896.305C4.26503 896.304 5.1593 895.407 5.15787 894.303L1.15787 894.308ZM5.17882 910.471C5.17739 909.367 4.2808 908.472 3.17623 908.474C2.07166 908.475 1.1774 909.372 1.17883 910.476L5.17882 910.471ZM1.21026 934.729C1.21169 935.834 2.10828 936.728 3.21285 936.726C4.31742 936.725 5.21169 935.828 5.21026 934.724L1.21026 934.729ZM5.25217 967.061C5.25074 965.956 4.35415 965.062 3.24958 965.063C2.14501 965.065 1.25074 965.961 1.25218 967.066L5.25217 967.061ZM1.26266 975.15C1.26409 976.255 2.16068 977.149 3.26525 977.147C4.36981 977.146 5.26408 976.249 5.26265 975.145L1.26266 975.15ZM5.28361 991.313C5.28218 990.209 4.38559 989.314 3.28102 989.316C2.17645 989.317 1.28218 990.214 1.28361 991.318L5.28361 991.313ZM1.31505 1015.57C1.31648 1016.68 2.21307 1017.57 3.31764 1017.57C4.42221 1017.57 5.31648 1016.67 5.31504 1015.57L1.31505 1015.57ZM5.35696 1047.9C5.35553 1046.8 4.45894 1045.9 3.35437 1045.91C2.2498 1045.91 1.35553 1046.8 1.35696 1047.91L5.35696 1047.9ZM1.36744 1055.99C1.36887 1057.1 2.26546 1057.99 3.37003 1057.99C4.4746 1057.99 5.36887 1057.09 5.36744 1055.99L1.36744 1055.99ZM5.38839 1072.16C5.38696 1071.05 4.49037 1070.16 3.3858 1070.16C2.28123 1070.16 1.38696 1071.06 1.3884 1072.16L5.38839 1072.16ZM1.41983 1096.41C1.42126 1097.52 2.31785 1098.41 3.42242 1098.41C4.52699 1098.41 5.42126 1097.51 5.41983 1096.41L1.41983 1096.41ZM5.46174 1128.74C5.46031 1127.64 4.56372 1126.75 3.45915 1126.75C2.35458 1126.75 1.46031 1127.65 1.46175 1128.75L5.46174 1128.74ZM1.47222 1136.83C1.47366 1137.94 2.37025 1138.83 3.47481 1138.83C4.57938 1138.83 5.47365 1137.93 5.47222 1136.83L1.47222 1136.83ZM5.49318 1153C5.49175 1151.89 4.59516 1151 3.49059 1151C2.38602 1151 1.49175 1151.9 1.49318 1153L5.49318 1153ZM1.52462 1177.26C1.52605 1178.36 2.42264 1179.25 3.52721 1179.25C4.63178 1179.25 5.52605 1178.35 5.52461 1177.25L1.52462 1177.26ZM5.56653 1209.59C5.5651 1208.48 4.66851 1207.59 3.56394 1207.59C2.45937 1207.59 1.5651 1208.49 1.56653 1209.59L5.56653 1209.59ZM1.57701 1217.68C1.57844 1218.78 2.47503 1219.68 3.5796 1219.67C4.68417 1219.67 5.57844 1218.78 5.57701 1217.67L1.57701 1217.68ZM5.59796 1233.84C5.59653 1232.74 4.69994 1231.84 3.59537 1231.84C2.4908 1231.84 1.59653 1232.74 1.59797 1233.85L5.59796 1233.84ZM1.6294 1258.1C1.63083 1259.2 2.52742 1260.1 3.63199 1260.1C4.73656 1260.09 5.63083 1259.2 5.6294 1258.09L1.6294 1258.1ZM5.67131 1290.43C5.66988 1289.32 4.77329 1288.43 3.66872 1288.43C2.56415 1288.43 1.66988 1289.33 1.67132 1290.43L5.67131 1290.43ZM1.68179 1298.52C1.68323 1299.62 2.57982 1300.52 3.68438 1300.52C4.78895 1300.51 5.68322 1299.62 5.68179 1298.51L1.68179 1298.52ZM5.70275 1314.68C5.70132 1313.58 4.80473 1312.68 3.70016 1312.68C2.59559 1312.69 1.70132 1313.58 1.70275 1314.69L5.70275 1314.68ZM1.73419 1338.94C1.73562 1340.04 2.63221 1340.94 3.73678 1340.94C4.84135 1340.94 5.73561 1340.04 5.73418 1338.93L1.73419 1338.94ZM5.7761 1371.27C5.77466 1370.17 4.87807 1369.27 3.77351 1369.27C2.66894 1369.28 1.77467 1370.17 1.7761 1371.28L5.7761 1371.27ZM1.78658 1379.36C1.78801 1380.47 2.6846 1381.36 3.78917 1381.36C4.89374 1381.36 5.78801 1380.46 5.78657 1379.36L1.78658 1379.36ZM5.80753 1395.52C5.8061 1394.42 4.90951 1393.53 3.80494 1393.53C2.70037 1393.53 1.8061 1394.42 1.80754 1395.53L5.80753 1395.52ZM1.83897 1419.78C1.8404 1420.89 2.73699 1421.78 3.84156 1421.78C4.94613 1421.78 5.8404 1420.88 5.83897 1419.78L1.83897 1419.78ZM5.88088 1452.11C5.87945 1451.01 4.98286 1450.11 3.87829 1450.12C2.77372 1450.12 1.87945 1451.01 1.88088 1452.12L5.88088 1452.11ZM1.89136 1460.2C1.89279 1461.31 2.78939 1462.2 3.89395 1462.2C4.99852 1462.2 5.89279 1461.3 5.89136 1460.2L1.89136 1460.2ZM5.91232 1476.37C5.91088 1475.26 5.01429 1474.37 3.90973 1474.37C2.80516 1474.37 1.91089 1475.27 1.91232 1476.37L5.91232 1476.37ZM1.94376 1500.62C1.94519 1501.73 2.84178 1502.62 3.94635 1502.62C5.05091 1502.62 5.94518 1501.72 5.94375 1500.62L1.94376 1500.62ZM5.98567 1532.96C5.98423 1531.85 5.08764 1530.96 3.98308 1530.96C2.87851 1530.96 1.98424 1531.86 1.98567 1532.96L5.98567 1532.96ZM1.66893e-06 1.00259L0.0052409 5.0447L4.00524 5.03951L4 0.997408L1.66893e-06 1.00259ZM0.0261978 21.2131L0.0576332 45.4658L4.05763 45.4606L4.02619 21.2079L0.0261978 21.2131ZM0.099547 77.8026L0.110025 85.8868L4.11002 85.8816L4.09954 77.7974L0.099547 77.8026ZM0.130982 102.055L0.162418 126.308L4.16241 126.303L4.13098 102.05L0.130982 102.055ZM0.204331 158.645L0.21481 166.729L4.21481 166.724L4.20433 158.64L0.204331 158.645ZM0.235767 182.897L0.267202 207.15L4.2672 207.145L4.23576 182.892L0.235767 182.897ZM0.309116 239.487L0.319594 247.571L4.31959 247.566L4.30911 239.482L0.309116 239.487ZM0.340551 263.739L0.371987 287.992L4.37198 287.987L4.34055 263.734L0.340551 263.739ZM0.413901 320.329L0.424379 328.413L4.42438 328.408L4.4139 320.324L0.413901 320.329ZM0.445336 344.582L0.476771 368.834L4.47677 368.829L4.44533 344.576L0.445336 344.582ZM0.518685 401.171L0.529164 409.255L4.52916 409.25L4.51868 401.166L0.518685 401.171ZM0.55012 425.424L0.581556 449.676L4.58155 449.671L4.55012 425.419L0.55012 425.424ZM0.62347 482.013L0.633948 490.097L4.63394 490.092L4.62347 482.008L0.62347 482.013ZM0.654905 506.266L0.68634 530.518L4.68634 530.513L4.6549 506.261L0.654905 506.266ZM0.728254 562.855L0.738733 570.939L4.73873 570.934L4.72825 562.85L0.728254 562.855ZM0.75969 587.108L0.791125 611.361L4.79112 611.355L4.75969 587.103L0.75969 587.108ZM0.833039 643.697L0.843517 651.782L4.84351 651.776L4.83304 643.692L0.833039 643.697ZM0.864474 667.95L0.895909 692.203L4.89591 692.198L4.86447 667.945L0.864474 667.95ZM0.937823 724.54L0.948302 732.624L4.9483 732.619L4.93782 724.534L0.937823 724.54ZM0.969259 748.792L1.00069 773.045L5.00069 773.04L4.96926 748.787L0.969259 748.792ZM1.04261 805.382L1.05309 813.466L5.05308 813.461L5.0426 805.376L1.04261 805.382ZM1.07404 829.634L1.10548 853.887L5.10548 853.882L5.07404 829.629L1.07404 829.634ZM1.14739 886.224L1.15787 894.308L5.15787 894.303L5.14739 886.218L1.14739 886.224ZM1.17883 910.476L1.21026 934.729L5.21026 934.724L5.17882 910.471L1.17883 910.476ZM1.25218 967.066L1.26266 975.15L5.26265 975.145L5.25217 967.061L1.25218 967.066ZM1.28361 991.318L1.31505 1015.57L5.31504 1015.57L5.28361 991.313L1.28361 991.318ZM1.35696 1047.91L1.36744 1055.99L5.36744 1055.99L5.35696 1047.9L1.35696 1047.91ZM1.3884 1072.16L1.41983 1096.41L5.41983 1096.41L5.38839 1072.16L1.3884 1072.16ZM1.46175 1128.75L1.47222 1136.83L5.47222 1136.83L5.46174 1128.74L1.46175 1128.75ZM1.49318 1153L1.52462 1177.26L5.52461 1177.25L5.49318 1153L1.49318 1153ZM1.56653 1209.59L1.57701 1217.68L5.57701 1217.67L5.56653 1209.59L1.56653 1209.59ZM1.59797 1233.85L1.6294 1258.1L5.6294 1258.09L5.59796 1233.84L1.59797 1233.85ZM1.67132 1290.43L1.68179 1298.52L5.68179 1298.51L5.67131 1290.43L1.67132 1290.43ZM1.70275 1314.69L1.73419 1338.94L5.73418 1338.93L5.70275 1314.68L1.70275 1314.69ZM1.7761 1371.28L1.78658 1379.36L5.78657 1379.36L5.7761 1371.27L1.7761 1371.28ZM1.80754 1395.53L1.83897 1419.78L5.83897 1419.78L5.80753 1395.52L1.80754 1395.53ZM1.88088 1452.12L1.89136 1460.2L5.89136 1460.2L5.88088 1452.11L1.88088 1452.12ZM1.91232 1476.37L1.94376 1500.62L5.94375 1500.62L5.91232 1476.37L1.91232 1476.37ZM1.98567 1532.96L1.99091 1537L5.9909 1537L5.98567 1532.96L1.98567 1532.96Z" fill="#F17941"/>
</svg>
